<?xml version="1.0" encoding="utf-8"?>
<svg viewBox="0 0 500 500" xmlns="http://www.w3.org/2000/svg">
  <g transform="matrix(0.6867859959602356, 0, 0, 0.6867859959602356, -93.3895187377932, -93.38614654541016)" style="">
    <linearGradient id="SVGID_16_" gradientUnits="userSpaceOnUse" x1="431.8742" y1="460.2034" x2="431.8742" y2="385.8034">
      <stop offset="0" style="stop-color:#F69936"/>
      <stop offset="0.5" style="stop-color:#6C4BEF"/>
      <stop offset="1" style="stop-color:#41E4CD"/>
    </linearGradient>
    <polygon class="st16" points="431.87,422.99 431.87,423 431.87,422.99 &#9;" style="fill: url('#SVGID_16_');"/>
    <linearGradient id="SVGID_17_" gradientUnits="userSpaceOnUse" x1="431.8742" y1="474.607" x2="431.8742" y2="371.407">
      <stop offset="0" style="stop-color:#F69936"/>
      <stop offset="0.5" style="stop-color:#6C4BEF"/>
      <stop offset="1" style="stop-color:#41E4CD"/>
    </linearGradient>
    <polygon class="st17" points="431.87,423.01 431.87,423.01 431.87,423 431.87,422.99 &#9;" style="fill: url('#SVGID_17_');"/>
    <linearGradient id="SVGID_18_" gradientUnits="userSpaceOnUse" x1="332.8695" y1="474.607" x2="332.8695" y2="371.407">
      <stop offset="0" style="stop-color:#F69936"/>
      <stop offset="0.5" style="stop-color:#6C4BEF"/>
      <stop offset="1" style="stop-color:#41E4CD"/>
    </linearGradient>
    <path class="st18" d="M332.87,423.01L332.87,423.01c0,0,0-0.01,0-0.01V423.01z" style="fill: url('#SVGID_18_');"/>
    <linearGradient id="SVGID_19_" gradientUnits="userSpaceOnUse" x1="470.5102" y1="762.5921" x2="470.5102" y2="625.7921">
      <stop offset="0" style="stop-color:#F69936"/>
      <stop offset="0.5" style="stop-color:#6C4BEF"/>
      <stop offset="1" style="stop-color:#41E4CD"/>
    </linearGradient>
    <path class="st19" d="M470.5,619.79c0.01,0.01,0.01,0.01,0.02,0.02c0,0,0,0,0,0L470.5,619.79z" style="fill: url('#SVGID_19_');"/>
    <g>
      <linearGradient id="SVGID_20_" gradientUnits="userSpaceOnUse" x1="583.572" y1="769.6279" x2="583.572" y2="234.9181">
        <stop offset="0" style="stop-color:#40E4CC"/>
        <stop offset="1" style="stop-color:#6C4BEF"/>
      </linearGradient>
      <path class="st20" d="M667.13,770.91h-99.01c-0.03-21.98-3.6-39.21-9.34-54.25c-5.78-14.98-13.93-28.05-24.45-40.66&#10;&#9;&#9;&#9;c-7.03-8.38-15.11-16.5-24.09-24.52c-3.27-2.94-6.73-5.84-10.23-8.78c9.24-7.62,19.17-15.21,29.54-22.9&#10;&#9;&#9;&#9;c14.29-10.63,29.34-21.42,44.35-33.27c2.11-1.68,4.26-3.43,6.4-5.15c0.56,0.5,1.12,1.02,1.68,1.55&#10;&#9;&#9;&#9;c17.46,16.17,34.42,34.88,48.64,57.36c9.47,14.98,17.66,31.62,23.79,49.83C662.64,714.41,667.17,741.5,667.13,770.91z" style="fill: url('#SVGID_20_');"/>
      <linearGradient id="SVGID_21_" gradientUnits="userSpaceOnUse" x1="416.4455" y1="769.6431" x2="416.4455" y2="234.9175">
        <stop offset="0" style="stop-color:#40E4CC"/>
        <stop offset="1" style="stop-color:#6C4BEF"/>
      </linearGradient>
      <path class="st21" d="M500.02,518.46c-9.29,6.99-19.23,14.2-29.5,21.84c-15.13,11.26-31.05,23.35-46.65,37.28&#10;&#9;&#9;&#9;c-1.38,1.26-2.78,2.55-4.13,3.82c-16.56-13.47-32.95-28.43-47.38-46.68c-9.74-12.35-18.55-26.22-25.32-41.88&#10;&#9;&#9;&#9;c-9.04-20.77-14.23-44.57-14.18-69.84V229.09h99v193.91c0.03,10.47,1.66,18.67,4.35,26.27c2.78,7.63,6.79,14.85,12.55,22.43&#10;&#9;&#9;&#9;c3.82,5.05,8.42,10.19,13.75,15.44c7.1,7.02,15.55,14.26,24.98,21.7C491.49,511.97,495.73,515.2,500.02,518.46z" style="fill: url('#SVGID_21_');"/>
    </g>
    <linearGradient id="SVGID_22_" gradientUnits="userSpaceOnUse" x1="499.9953" y1="769.6356" x2="499.9953" y2="235.7453">
      <stop offset="0" style="stop-color:#F69936"/>
      <stop offset="0.5" style="stop-color:#FE3ED2"/>
      <stop offset="1" style="stop-color:#6C4BEF"/>
    </linearGradient>
    <path class="st22" d="M667.12,422.99c0.06,21.33-3.59,41.6-10.22,59.9c-6.6,18.33-16.08,34.55-26.83,48.73&#10;&#9;&#9;c-7.19,9.43-14.96,18.02-22.99,25.96c-8.7,8.59-17.71,16.39-26.78,23.8c-2.13,1.71-4.29,3.45-6.4,5.14&#10;&#9;&#9;c-15.02,11.85-30.06,22.65-44.35,33.26c-10.36,7.69-20.29,15.3-29.53,22.9c-5.14,4.27-10.05,8.51-14.65,12.8&#10;&#9;&#9;c-13.05,12.1-23.92,24.42-32.31,37.73c-5.61,8.87-10.19,18.19-13.67,28.55c-4.66,13.84-7.49,29.61-7.52,49.15h-99&#10;&#9;&#9;c-0.06-33.12,5.7-63.24,15.97-89.77c10.19-26.61,24.7-49.37,40.95-68.71c9.54-11.4,19.65-21.61,29.95-31.05&#10;&#9;&#9;c1.35-1.26,2.75-2.55,4.13-3.82c15.61-13.92,31.52-26.02,46.65-37.28c10.27-7.64,20.21-14.85,29.5-21.84&#10;&#9;&#9;c6.04-4.52,11.76-8.95,17.15-13.31c13.67-11.06,24.81-21.64,32.76-31.77c5.33-6.76,9.29-13.25,12.18-19.87&#10;&#9;&#9;c3.79-8.93,5.98-18.13,6.01-30.51c0-7.52-1.54-14.6-4.77-22.26c-3.2-7.63-8.22-15.61-14.6-23.44&#10;&#9;&#9;c-12.72-15.61-28.77-27.85-46.96-36.27c-18.19-8.45-38.46-12.94-59.17-12.94H332.87v-99h109.75c35.06,0,69.44,7.58,100.74,22.09&#10;&#9;&#9;c31.33,14.48,59.65,35.96,82.16,63.61c11.06,13.59,21.3,29.25,29,47.33C662.18,380.16,667.18,400.87,667.12,422.99z" style="fill: url('#SVGID_22_');"/>
  </g>
</svg>