<?xml version="1.0" encoding="utf-8"?>
<svg viewBox="0 0 1346.987 368.978" xmlns="http://www.w3.org/2000/svg">
  <g transform="matrix(1.2889180183410645, 0, 0, 1.2889180183410645, 103.7376937866211, 3836.876220703125)" style="">
    <g style="" transform="matrix(1.326731, 0, 0, 1.326731, -221.316925, 881.155273)">
      <path d="M359.2-2744.88h-22.09l-26.89-33.24h-17.57v33.24h-17.22v-71.92c0-11.01,3.9-20.42,11.72-28.23&#10;&#9;&#9;&#9;c7.76-7.76,17.15-11.65,28.16-11.65c11.01,0,20.42,3.88,28.23,11.65c7.76,7.81,11.65,17.22,11.65,28.23&#10;&#9;&#9;&#9;c0,11.01-3.88,20.4-11.65,28.16c-3.62,3.62-8,6.33-13.13,8.12L359.2-2744.88z M292.65-2794.21h22.66c6.26,0,11.6-2.19,16.02-6.56&#10;&#9;&#9;&#9;c4.42-4.42,6.63-9.76,6.63-16.02c0-7.43-2.35-13.34-7.06-17.72c-4.28-3.9-9.48-5.86-15.6-5.86c-6.12,0-11.29,1.95-15.53,5.86&#10;&#9;&#9;&#9;c-4.75,4.38-7.13,10.28-7.13,17.72V-2794.21z" style=""/>
      <path d="M431.83-2781.23h-48.07v36.35h-17.22v-70.58c0-11.39,4.02-21.1,12.07-29.15c8.09-8.05,17.83-12.07,29.22-12.07&#10;&#9;&#9;&#9;s21.13,4.02,29.22,12.07c8.05,8.05,12.07,17.76,12.07,29.15v70.58h-17.29V-2781.23z M383.76-2797.11h48.07v-18.35&#10;&#9;&#9;&#9;c0-6.63-2.33-12.28-6.99-16.94c-4.71-4.7-10.38-7.06-17.01-7.06c-6.63,0-12.3,2.35-17.01,7.06c-4.71,4.66-7.06,10.31-7.06,16.94&#10;&#9;&#9;&#9;V-2797.11z" style=""/>
      <path d="M463.24-2744.88v-70.58c0-11.39,4.02-21.1,12.07-29.15c8.09-8.05,17.83-12.07,29.22-12.07c11.39,0,21.13,4.02,29.22,12.07&#10;&#9;&#9;&#9;c8.05,8.05,12.07,17.76,12.07,29.15v70.58h-17.29v-70.58c0-6.63-2.33-12.28-6.99-16.94c-4.71-4.7-10.38-7.06-17.01-7.06&#10;&#9;&#9;&#9;c-6.63,0-12.3,2.35-17.01,7.06c-4.71,4.66-7.06,10.31-7.06,16.94v70.58H463.24z" style=""/>
      <path d="M606.38-2792.02v-15.88h39.53c2.35,0,4.38,0.85,6.07,2.54c1.69,1.69,2.54,3.72,2.54,6.07v35.29&#10;&#9;&#9;&#9;c0,2.73-1.08,4.96-3.25,6.71c-4.94,4.47-10.47,7.9-16.59,10.3c-6.31,2.49-12.85,3.74-19.62,3.74c-15.29,0-28.33-5.58-39.1-16.73&#10;&#9;&#9;&#9;c-10.68-11.06-16.02-24.4-16.02-40.02c0-15.57,5.34-28.89,16.02-39.95c6.68-6.92,14.02-11.57,22.02-13.98&#10;&#9;&#9;&#9;c6.12-1.88,14.68-2.82,25.69-2.82v17.29c-8.7,0-15.01,0.49-18.92,1.48c-5.98,1.51-11.43,4.82-16.37,9.95&#10;&#9;&#9;&#9;c-7.48,7.72-11.22,17.06-11.22,28.02c0,11.01,3.74,20.37,11.22,28.09c7.34,7.62,16.23,11.43,26.68,11.43&#10;&#9;&#9;&#9;c4.61,0,9.06-0.85,13.34-2.54c3.15-1.22,6.12-2.89,8.89-5.01v-24H606.38z" style=""/>
      <path d="M668.63-2823.93c0-8.61,3.03-15.95,9.1-22.02c6.12-6.07,13.46-9.11,22.02-9.11h12.99c8.8,0,16.3,3.11,22.52,9.32&#10;&#9;&#9;&#9;c6.21,6.21,9.32,13.72,9.32,22.52c0,9.51-4.14,16.87-12.42,22.09c9.93,6.54,14.89,14.66,14.89,24.35c0,8.8-3.11,16.33-9.32,22.59&#10;&#9;&#9;&#9;c-6.26,6.21-13.79,9.32-22.59,9.32h-37.9c-2.35,0-4.37-0.85-6.07-2.54c-1.69-1.69-2.54-3.72-2.54-6.07V-2823.93z M712.74-2807.2&#10;&#9;&#9;&#9;c4,0,7.43-1.43,10.31-4.31c2.87-3.29,4.3-7.2,4.3-11.72c0-4.52-1.44-8.19-4.3-11.01c-2.87-2.87-6.31-4.3-10.31-4.3h-12.99&#10;&#9;&#9;&#9;c-3.81,0-7.08,1.37-9.81,4.09c-2.73,2.73-4.09,6-4.09,9.81v17.43H712.74z M685.85-2792.73v31.27h29.29c4.05,0,7.5-1.41,10.38-4.23&#10;&#9;&#9;&#9;c2.82-2.87,4.23-6.56,4.23-11.08c0-4.47-1.41-8.38-4.23-11.72c-2.87-2.82-6.33-4.23-10.38-4.23H685.85z" style=""/>
      <path d="M823.7-2781.23h-48.07v36.35h-17.22v-70.58c0-11.39,4.02-21.1,12.07-29.15c8.09-8.05,17.83-12.07,29.22-12.07&#10;&#9;&#9;&#9;c11.39,0,21.13,4.02,29.22,12.07c8.05,8.05,12.07,17.76,12.07,29.15v70.58H823.7V-2781.23z M775.63-2797.11h48.07v-18.35&#10;&#9;&#9;&#9;c0-6.63-2.33-12.28-6.99-16.94c-4.71-4.7-10.38-7.06-17.01-7.06c-6.63,0-12.31,2.35-17.01,7.06c-4.71,4.66-7.06,10.31-7.06,16.94&#10;&#9;&#9;&#9;V-2797.11z" style=""/>
      <path d="M848.75-2744.88v-17.29h13.97c3.81,0,7.06-1.34,9.74-4.02c2.73-2.73,4.09-6,4.09-9.81v-79.05h17.29v79.05&#10;&#9;&#9;&#9;c0,8.56-3.06,15.91-9.18,22.02c-6.07,6.07-13.39,9.11-21.95,9.11H848.75z" style=""/>
    </g>
    <g style="" transform="matrix(1.326731, 0, 0, 1.326731, -221.316925, 881.155273)">
      <path class="st23" d="M199.83-2830.66c-0.01,4.93-0.88,8.59-2.39,12.14c-1.16,2.64-2.73,5.22-4.85,7.91&#10;&#9;&#9;&#9;c-3.17,4.03-7.61,8.25-13.05,12.66c-2.14,1.73-4.43,3.5-6.83,5.3c-1.71-1.29-3.39-2.58-4.98-3.82c-3.76-2.97-7.12-5.85-9.95-8.65&#10;&#9;&#9;&#9;c-2.13-2.09-3.96-4.14-5.48-6.15c-2.29-3.01-3.89-5.89-4.99-8.92c-1.08-3.04-1.72-6.29-1.73-10.46v-37.79h4.28&#10;&#9;&#9;&#9;c8.25,0,16.32,1.79,23.56,5.15c7.24,3.35,13.64,8.23,18.7,14.44c2.54,3.11,4.53,6.29,5.81,9.33&#10;&#9;&#9;&#9;C199.22-2836.48,199.83-2833.66,199.83-2830.66z" style="fill: none;"/>
      <linearGradient id="SVGID_23_" gradientUnits="userSpaceOnUse" x1="145.5778" y1="-2816.259" x2="145.5778" y2="-2845.0591">
        <stop offset="0" style="stop-color:#F69936"/>
        <stop offset="0.5" style="stop-color:#6C4BEF"/>
        <stop offset="1" style="stop-color:#41E4CD"/>
      </linearGradient>
      <polygon class="st24" points="145.58,-2830.66 145.58,-2830.66 145.58,-2830.66 &#9;&#9;" style="fill: url('#SVGID_23_');"/>
      <linearGradient id="SVGID_24_" gradientUnits="userSpaceOnUse" x1="145.5778" y1="-2810.2576" x2="145.5778" y2="-2851.0576">
        <stop offset="0" style="stop-color:#F69936"/>
        <stop offset="0.5" style="stop-color:#6C4BEF"/>
        <stop offset="1" style="stop-color:#41E4CD"/>
      </linearGradient>
      <polygon class="st25" points="145.58,-2830.66 145.58,-2830.66 145.58,-2830.66 145.58,-2830.66 &#9;&#9;" style="fill: url('#SVGID_24_');"/>
      <linearGradient id="SVGID_25_" gradientUnits="userSpaceOnUse" x1="106.1535" y1="-2810.2576" x2="106.1535" y2="-2851.0576">
        <stop offset="0" style="stop-color:#F69936"/>
        <stop offset="0.5" style="stop-color:#6C4BEF"/>
        <stop offset="1" style="stop-color:#41E4CD"/>
      </linearGradient>
      <polygon class="st26" points="106.15,-2830.66 106.15,-2830.66 106.15,-2830.66 &#9;&#9;" style="fill: url('#SVGID_25_');"/>
      <linearGradient id="SVGID_26_" gradientUnits="userSpaceOnUse" x1="160.9629" y1="-2694.6755" x2="160.9629" y2="-2749.8755">
        <stop offset="0" style="stop-color:#F69936"/>
        <stop offset="0.5" style="stop-color:#6C4BEF"/>
        <stop offset="1" style="stop-color:#41E4CD"/>
      </linearGradient>
      <polygon class="st27" points="160.96,-2752.3 160.97,-2752.29 160.97,-2752.29 &#9;&#9;" style="fill: url('#SVGID_26_');"/>
      <g>
        <linearGradient id="SVGID_27_" gradientUnits="userSpaceOnUse" x1="205.9848" y1="-2692.6309" x2="205.9848" y2="-2905.5559">
          <stop offset="0" style="stop-color:#40E4CC"/>
          <stop offset="1" style="stop-color:#6C4BEF"/>
        </linearGradient>
        <path class="st28" d="M239.26-2692.12h-39.42c-0.01-8.75-1.43-15.61-3.72-21.6c-2.3-5.97-5.55-11.17-9.74-16.19&#10;&#9;&#9;&#9;&#9;c-2.8-3.34-6.02-6.57-9.59-9.76c-1.3-1.17-2.68-2.33-4.07-3.5c3.68-3.04,7.64-6.06,11.76-9.12c5.69-4.23,11.68-8.53,17.66-13.25&#10;&#9;&#9;&#9;&#9;c0.84-0.67,1.7-1.37,2.55-2.05c0.22,0.2,0.45,0.41,0.67,0.62c6.95,6.44,13.71,13.89,19.37,22.84c3.77,5.97,7.03,12.59,9.48,19.84&#10;&#9;&#9;&#9;&#9;C237.47-2714.62,239.27-2703.83,239.26-2692.12z" style="fill: url('#SVGID_27_');"/>
        <linearGradient id="SVGID_28_" gradientUnits="userSpaceOnUse" x1="139.4298" y1="-2692.6309" x2="139.4298" y2="-2905.5562">
          <stop offset="0" style="stop-color:#40E4CC"/>
          <stop offset="1" style="stop-color:#6C4BEF"/>
        </linearGradient>
        <path class="st29" d="M172.71-2792.65c-3.69,2.79-7.65,5.66-11.75,8.7c-6.02,4.48-12.35,9.3-18.57,14.85&#10;&#9;&#9;&#9;&#9;c-0.55,0.5-1.1,1.01-1.64,1.51c-6.6-5.36-13.13-11.31-18.87-18.58c-3.88-4.92-7.39-10.45-10.08-16.68&#10;&#9;&#9;&#9;&#9;c-3.6-8.28-5.66-17.75-5.65-27.81v-77.22h39.42v77.22c0.01,4.17,0.66,7.43,1.73,10.46c1.1,3.04,2.71,5.91,4.99,8.92&#10;&#9;&#9;&#9;&#9;c1.52,2.01,3.35,4.06,5.48,6.15c2.83,2.8,6.19,5.68,9.95,8.65C169.32-2795.23,171-2793.94,172.71-2792.65z" style="fill: url('#SVGID_28_');"/>
      </g>
      <linearGradient id="SVGID_29_" gradientUnits="userSpaceOnUse" x1="172.704" y1="-2692.6309" x2="172.704" y2="-2905.2263">
        <stop offset="0" style="stop-color:#F69936"/>
        <stop offset="0.5" style="stop-color:#FE3ED2"/>
        <stop offset="1" style="stop-color:#6C4BEF"/>
      </linearGradient>
      <path class="st30" d="M239.26-2830.66c0.01,8.49-1.43,16.56-4.07,23.85c-2.63,7.29-6.4,13.76-10.68,19.4&#10;&#9;&#9;&#9;c-2.86,3.76-5.95,7.18-9.16,10.34c-3.46,3.42-7.04,6.53-10.66,9.48c-0.85,0.68-1.71,1.38-2.55,2.05&#10;&#9;&#9;&#9;c-5.98,4.72-11.97,9.02-17.66,13.25c-4.13,3.06-8.08,6.08-11.76,9.12c-2.04,1.7-4,3.39-5.83,5.1c-5.19,4.81-9.51,9.72-12.87,15.02&#10;&#9;&#9;&#9;c-2.23,3.54-4.05,7.24-5.44,11.37c-1.85,5.51-2.98,11.79-3,19.57h-39.42c-0.01-13.18,2.27-25.18,6.36-35.74&#10;&#9;&#9;&#9;c4.06-10.59,9.84-19.66,16.31-27.36c3.8-4.53,7.83-8.61,11.93-12.37c0.54-0.5,1.09-1.01,1.64-1.51&#10;&#9;&#9;&#9;c6.22-5.55,12.55-10.37,18.57-14.85c4.1-3.04,8.06-5.91,11.75-8.7c2.4-1.8,4.69-3.56,6.83-5.3c5.44-4.4,9.88-8.62,13.05-12.66&#10;&#9;&#9;&#9;c2.12-2.69,3.69-5.27,4.85-7.91c1.51-3.55,2.38-7.21,2.39-12.14c0-3-0.62-5.82-1.91-8.87c-1.27-3.04-3.27-6.22-5.81-9.33&#10;&#9;&#9;&#9;c-5.06-6.22-11.46-11.09-18.7-14.44c-7.24-3.36-15.31-5.15-23.56-5.15h-43.71v-39.42h43.71c13.96,0,27.65,3.02,40.12,8.79&#10;&#9;&#9;&#9;c12.47,5.77,23.75,14.32,32.71,25.34c4.4,5.4,8.49,11.64,11.55,18.84C237.29-2847.72,239.27-2839.48,239.26-2830.66z" style="fill: url('#SVGID_29_');"/>
    </g>
  </g>
</svg>